<svg width="106" height="43" viewBox="0 0 106 43" fill="none" xmlns="http://www.w3.org/2000/svg">
<mask id="mask0_362_3291" style="mask-type:alpha" maskUnits="userSpaceOnUse" x="23" y="6" width="16" height="20">
<path fill-rule="evenodd" clip-rule="evenodd" d="M38.6474 16.736L32.2559 25.7414L23.0605 22.6888L34.8198 6.12671L38.6474 16.736Z" fill="#F37A3C"/>
</mask>
<g mask="url(#mask0_362_3291)">
<path fill-rule="evenodd" clip-rule="evenodd" d="M37.4971 18.3465L32.2539 25.7385L23.0586 22.686L34.5049 6.56835C34.5352 6.52568 34.5762 6.49219 34.6236 6.47142C34.6709 6.45066 34.7229 6.4434 34.774 6.45041C34.825 6.45742 34.8733 6.47844 34.9136 6.51124C34.954 6.54405 34.9849 6.58741 35.0031 6.63674L37.971 14.8618C38.1783 15.4378 38.2434 16.0571 38.1608 16.6649C38.0781 17.2728 37.8502 17.8504 37.4971 18.3465Z" fill="#FFC700"/>
<path opacity="0.31" fill-rule="evenodd" clip-rule="evenodd" d="M29.4401 29.6955C29.3957 29.758 29.3289 29.8 29.2543 29.8122C29.1797 29.8244 29.1034 29.8059 29.0421 29.7607L22.0553 24.5726C21.9965 24.5249 21.9585 24.4554 21.9494 24.3792C21.9403 24.303 21.9609 24.2262 22.0066 24.1654L32.9001 8.83425C32.9001 8.83425 35.0843 7.59084 35.227 15.9838C35.3455 22.7666 29.4401 29.6955 29.4401 29.6955Z" fill="#FFD975"/>
<path opacity="0.31" fill-rule="evenodd" clip-rule="evenodd" d="M29.4401 29.6952C29.3957 29.7577 29.3289 29.7997 29.2543 29.8119C29.1797 29.8242 29.1034 29.8057 29.0421 29.7605L22.0553 24.5724C21.9965 24.5246 21.9585 24.4552 21.9494 24.379C21.9403 24.3028 21.9609 24.226 22.0066 24.1651L28.2098 15.4334C28.872 14.3671 33.6778 11.0379 33.2829 17.8487C33.0365 22.0734 31.7114 26.1582 29.4401 29.6952Z" fill="#FFECBA"/>
</g>
<mask id="mask1_362_3291" style="mask-type:alpha" maskUnits="userSpaceOnUse" x="12" y="0" width="19" height="19">
<path fill-rule="evenodd" clip-rule="evenodd" d="M23.8157 0L30.8542 9.97831L25.2496 18.0138L12.7734 0.447625L23.8157 0Z" fill="#F79D31"/>
</mask>
<g mask="url(#mask1_362_3291)">
<path fill-rule="evenodd" clip-rule="evenodd" d="M24.9614 1.62886L30.8546 9.99386L25.25 18.0138L13.0989 0.889035C13.0733 0.844806 13.0589 0.794791 13.0569 0.743463C13.0549 0.692135 13.0653 0.641094 13.0873 0.594904C13.1092 0.548714 13.1421 0.508814 13.1828 0.478774C13.2235 0.448733 13.2709 0.429488 13.3206 0.422759L21.8689 0.0746059C22.4697 0.0526805 23.0664 0.183113 23.6059 0.454288C24.1455 0.725463 24.6111 1.12896 24.9614 1.62886Z" fill="#F79D31"/>
<path opacity="0.31" fill-rule="evenodd" clip-rule="evenodd" d="M33.0175 12.9685C33.0393 12.9993 33.0549 13.0342 33.0635 13.0712C33.0721 13.1082 33.0734 13.1465 33.0675 13.1841C33.0616 13.2216 33.0485 13.2576 33.0289 13.2899C33.0094 13.3223 32.9838 13.3504 32.9537 13.3726L25.9668 18.5576C25.9367 18.5799 25.9026 18.5959 25.8664 18.6046C25.8303 18.6134 25.7928 18.6148 25.7561 18.6088C25.7194 18.6027 25.6843 18.5893 25.6527 18.5693C25.6211 18.5493 25.5936 18.5231 25.5719 18.4923L14.7149 3.15179C14.7149 3.15179 14.2289 0.643225 22.0693 3.09273C28.4001 5.07907 33.0175 12.9685 33.0175 12.9685Z" fill="#FFBA1F"/>
<path opacity="0.31" fill-rule="evenodd" clip-rule="evenodd" d="M33.0186 12.9685C33.0404 12.9993 33.056 13.0342 33.0646 13.0712C33.0732 13.1082 33.0745 13.1466 33.0686 13.1841C33.0627 13.2217 33.0496 13.2576 33.03 13.29C33.0105 13.3223 32.9849 13.3504 32.9548 13.3726L25.9679 18.5576C25.9378 18.5799 25.9037 18.5959 25.8675 18.6047C25.8314 18.6135 25.7939 18.6149 25.7572 18.6088C25.7205 18.6028 25.6854 18.5893 25.6538 18.5694C25.6221 18.5494 25.5947 18.5232 25.573 18.4923L19.3759 9.75743C18.5983 8.77825 16.9882 3.07414 23.1944 5.56406C27.0461 7.10963 30.4337 9.6629 33.0186 12.9685Z" fill="#FFD217"/>
</g>
<path fill-rule="evenodd" clip-rule="evenodd" d="M4.85075 10.1088L15.8991 6.42831L21.5767 14.4296L0.50674 21.4424C0.456948 21.4615 0.402942 21.4659 0.350803 21.4553C0.298663 21.4447 0.250462 21.4193 0.211627 21.3822C0.172791 21.345 0.144864 21.2975 0.130989 21.245C0.117114 21.1925 0.117843 21.137 0.133094 21.0849L2.46914 12.6453C2.63163 12.0547 2.93398 11.5142 3.34941 11.0718C3.76485 10.6293 4.28053 10.2985 4.85075 10.1088Z" fill="#F37A3C"/>
<mask id="mask2_362_3291" style="mask-type:alpha" maskUnits="userSpaceOnUse" x="0" y="6" width="22" height="16">
<path fill-rule="evenodd" clip-rule="evenodd" d="M2.99828 10.7274L15.8997 6.4314L21.5773 14.4296L0 21.6102L2.99828 10.7274Z" fill="#F7D31B"/>
</mask>
<g mask="url(#mask2_362_3291)">
<g opacity="0.31">
<path opacity="0.31" fill-rule="evenodd" clip-rule="evenodd" d="M17.8929 5.77865C17.9646 5.75508 18.0425 5.76145 18.1097 5.79639C18.1768 5.83132 18.2277 5.89198 18.2514 5.96516L20.9125 14.3737C20.9355 14.4471 20.9293 14.5268 20.8951 14.5955C20.861 14.6642 20.8017 14.7163 20.7302 14.7405L3.11112 20.572C3.11112 20.572 0.626219 20.2612 5.32869 13.3945C9.13502 7.84581 17.8929 5.77865 17.8929 5.77865Z" fill="#FFEA29"/>
<path opacity="0.31" fill-rule="evenodd" clip-rule="evenodd" d="M17.892 5.77865C17.9637 5.75508 18.0416 5.76145 18.1088 5.79639C18.1759 5.83132 18.2268 5.89198 18.2505 5.96516L22.0264 13.9416C22.0495 14.015 22.0432 14.0947 22.0091 14.1634C21.9749 14.2321 21.9157 14.2842 21.8442 14.3084L10.6955 18.0541C9.54726 18.5173 3.74208 18.3215 7.96154 13.0495C10.593 9.77853 14.0172 7.27144 17.892 5.77865Z" fill="#FAFF24"/>
</g>
</g>
<path fill-rule="evenodd" clip-rule="evenodd" d="M25.7118 34.4391L18.0566 31.887V21.9989L35.7365 27.8833C35.7855 27.8992 35.8294 27.9286 35.8633 27.9681C35.8972 28.0077 35.92 28.056 35.929 28.1079C35.9381 28.1597 35.9332 28.2131 35.9148 28.2622C35.8963 28.3114 35.8652 28.3545 35.8246 28.3869L29.0959 33.8205C28.6251 34.2005 28.0699 34.4557 27.4796 34.5636C26.8893 34.6715 26.2821 34.6288 25.7118 34.4391Z" fill="#17BDFF"/>
<mask id="mask3_362_3291" style="mask-type:alpha" maskUnits="userSpaceOnUse" x="18" y="21" width="18" height="15">
<path fill-rule="evenodd" clip-rule="evenodd" d="M27.419 35.0048L18.0566 31.887V21.9988L35.7365 27.8832C35.7855 27.8992 35.8294 27.9285 35.8633 27.9681C35.8972 28.0077 35.92 28.056 35.929 28.1078C35.9381 28.1597 35.9332 28.213 35.9147 28.2622C35.8963 28.3114 35.8651 28.3545 35.8246 28.3868L27.6833 34.9582C27.6465 34.9878 27.6031 35.0075 27.5569 35.0157C27.5108 35.0238 27.4634 35.0201 27.419 35.0048Z" fill="#17BDFF"/>
</mask>
<g mask="url(#mask3_362_3291)">
<path opacity="0.23" fill-rule="evenodd" clip-rule="evenodd" d="M13.6401 30.4228C13.6045 30.4112 13.5714 30.3924 13.5429 30.3676C13.5144 30.3428 13.491 30.3125 13.474 30.2784C13.4571 30.2443 13.4469 30.207 13.4441 30.1689C13.4414 30.1307 13.446 30.0923 13.4578 30.056L16.122 21.663C16.1456 21.5899 16.1965 21.5292 16.2637 21.4943C16.3308 21.4593 16.4087 21.453 16.4804 21.4765L34.0995 27.3329C34.0995 27.3329 35.9222 29.0706 28.1819 31.8092C21.9089 34.0256 13.6401 30.4228 13.6401 30.4228Z" fill="#3CE7EF"/>
<path opacity="0.23" fill-rule="evenodd" clip-rule="evenodd" d="M13.6401 30.4228C13.6045 30.4112 13.5714 30.3924 13.5429 30.3677C13.5144 30.3429 13.491 30.3125 13.474 30.2784C13.4571 30.2443 13.4469 30.207 13.4441 30.1689C13.4414 30.1307 13.446 30.0923 13.4578 30.056L16.122 21.663C16.1456 21.5899 16.1965 21.5292 16.2637 21.4943C16.3308 21.4593 16.4087 21.453 16.4804 21.4765L26.5051 24.812C27.7019 25.1228 32.2768 28.7753 25.8337 30.4943C21.8332 31.5633 17.6284 31.5387 13.6401 30.4228Z" fill="#3CE7EF"/>
</g>
<path fill-rule="evenodd" clip-rule="evenodd" d="M7.9375 34.9769V19.9691L17.145 16.9041V42.7047C17.1448 42.7575 17.1307 42.8092 17.1041 42.8544C17.0775 42.8996 17.0395 42.9366 16.994 42.9615C16.9485 42.9863 16.8973 42.9981 16.8458 42.9956C16.7943 42.9931 16.7444 42.9764 16.7015 42.9472L9.55056 38.0792C9.05331 37.7375 8.64601 37.2757 8.36467 36.7346C8.08332 36.1936 7.93661 35.5899 7.9375 34.9769Z" fill="#91CE3A"/>
<mask id="mask4_362_3291" style="mask-type:alpha" maskUnits="userSpaceOnUse" x="7" y="16" width="11" height="27">
<path fill-rule="evenodd" clip-rule="evenodd" d="M7.9375 36.8172V19.969L17.145 16.9041V42.7047C17.1448 42.7574 17.1307 42.8092 17.1041 42.8544C17.0775 42.8996 17.0395 42.9366 16.994 42.9614C16.9485 42.9863 16.8973 42.9981 16.8458 42.9956C16.7943 42.9931 16.7444 42.9763 16.7015 42.9471L8.06509 37.0658C8.02624 37.0375 7.99445 37.0003 7.97228 36.9571C7.95012 36.9139 7.9382 36.8659 7.9375 36.8172Z" fill="#91CE3A"/>
</mask>
<g mask="url(#mask4_362_3291)">
<g opacity="0.3">
<path opacity="0.3" fill-rule="evenodd" clip-rule="evenodd" d="M7.94555 15.8408C7.94635 15.7639 7.97679 15.6904 8.03025 15.6362C8.08372 15.5821 8.15589 15.5518 8.2311 15.5518H16.8401C16.9159 15.5518 16.9885 15.5825 17.0421 15.6373C17.0956 15.6921 17.1257 15.7665 17.1257 15.844V34.8059C17.1257 34.8059 16.0777 37.131 11.1413 30.4291C7.14965 25.0016 7.94555 15.8408 7.94555 15.8408Z" fill="#C5ED1D"/>
<path opacity="0.3" fill-rule="evenodd" clip-rule="evenodd" d="M7.94531 15.8408C7.94611 15.7639 7.97655 15.6904 8.03002 15.6362C8.08348 15.5821 8.15565 15.5518 8.23086 15.5518H16.8399C16.9156 15.5518 16.9883 15.5825 17.0418 15.6373C17.0954 15.6921 17.1255 15.7665 17.1255 15.844V26.6367C17.2044 27.8988 15.2269 33.4754 11.6362 27.7371C9.41247 24.1692 8.14002 20.0679 7.94531 15.8408Z" fill="#F9FF08"/>
</g>
</g>
<path d="M44.3008 17.7095C44.3008 17.6988 44.3049 17.6885 44.3123 17.6809C44.3198 17.6733 44.3298 17.6691 44.3403 17.6691H48.1314C49.8022 17.6691 51.0355 18.0048 51.8405 18.6762C52.6455 19.3477 53.0556 20.3766 53.0556 21.7847C53.0556 23.0717 52.6354 24.0705 51.795 24.7813C50.9535 25.4932 49.7688 25.8476 48.2317 25.8476H46.892C46.8869 25.8475 46.8819 25.8486 46.8773 25.8507C46.8727 25.8527 46.8685 25.8558 46.8651 25.8596C46.8617 25.8634 46.859 25.8678 46.8574 25.8727C46.8558 25.8776 46.8551 25.8828 46.8555 25.888V30.8118C46.8555 30.8226 46.8514 30.8328 46.844 30.8404C46.8366 30.848 46.8265 30.8522 46.8161 30.8522H44.3555C44.345 30.8522 44.3349 30.848 44.3275 30.8404C44.3201 30.8328 44.316 30.8226 44.316 30.8118L44.3008 17.7095ZM46.8404 19.5746V23.9389C46.8404 23.9438 46.8413 23.9487 46.8431 23.9532C46.845 23.9577 46.8476 23.9618 46.851 23.9653C46.8544 23.9688 46.8584 23.9715 46.8629 23.9734C46.8673 23.9753 46.872 23.9762 46.8768 23.9762H47.8823C48.562 24.0227 49.2358 23.8212 49.784 23.4074C50.009 23.2039 50.1856 22.9506 50.3003 22.6667C50.4151 22.3828 50.465 22.0758 50.4462 21.7692C50.4648 21.4624 50.4183 21.1552 50.3097 20.8686C50.2012 20.5821 50.0332 20.323 49.8174 20.1092C49.3139 19.6912 48.6751 19.4826 48.0281 19.5248H46.8768C46.8718 19.5248 46.8668 19.5259 46.8621 19.528C46.8575 19.53 46.8533 19.533 46.8499 19.5368C46.8465 19.5406 46.8439 19.5451 46.8422 19.55C46.8406 19.5549 46.8399 19.5601 46.8404 19.5653V19.5746Z" fill="#414141"/>
<path d="M62.8401 25.9343V26.6741C62.8401 26.6849 62.836 26.6951 62.8286 26.7027C62.8212 26.7103 62.8111 26.7145 62.8006 26.7145H56.2573C56.2517 26.714 56.246 26.7147 56.2408 26.7168C56.2355 26.7188 56.2308 26.7221 56.227 26.7263C56.2232 26.7305 56.2203 26.7356 56.2187 26.7411C56.2171 26.7466 56.2168 26.7524 56.2178 26.7581C56.2393 27.1157 56.3311 27.4652 56.4877 27.7857C56.6443 28.1061 56.8624 28.391 57.1291 28.6232C57.7455 29.1128 58.5126 29.3608 59.292 29.3226C59.7732 29.3236 60.2527 29.2641 60.7198 29.1454C61.1651 29.0329 61.5955 28.8659 62.0017 28.648C62.0075 28.6456 62.0137 28.6445 62.02 28.645C62.0262 28.6455 62.0323 28.6475 62.0376 28.6508C62.0429 28.6542 62.0474 28.6587 62.0507 28.6642C62.054 28.6697 62.0559 28.6758 62.0564 28.6822V30.4914C62.0568 30.4995 62.0547 30.5075 62.0503 30.5142C62.0459 30.5209 62.0395 30.526 62.0321 30.5287C61.566 30.7228 61.0814 30.8666 60.5861 30.9577C60.0232 31.0562 59.453 31.104 58.8819 31.1007C57.3124 31.1007 56.0841 30.6385 55.1971 29.7143C54.31 28.79 53.8635 27.5103 53.8574 25.8753C53.8574 24.4246 54.2878 23.2434 55.1485 22.3316C55.5873 21.8796 56.1131 21.5258 56.6924 21.2925C57.2718 21.0592 57.8922 20.9515 58.5143 20.9762C59.8813 20.9762 60.9435 21.4114 61.701 22.2818C62.4584 23.1522 62.8381 24.3697 62.8401 25.9343ZM60.6134 25.1727C60.6188 25.1728 60.6241 25.1717 60.6289 25.1694C60.6338 25.1672 60.6381 25.1639 60.6416 25.1597C60.6451 25.1556 60.6476 25.1507 60.6491 25.1454C60.6505 25.1401 60.6508 25.1346 60.6499 25.1292C60.6244 24.4516 60.3917 23.7992 59.9846 23.2641C59.8029 23.0429 59.5746 22.8667 59.3168 22.7488C59.0589 22.6309 58.7784 22.5743 58.4961 22.5833C58.2065 22.5754 57.9186 22.6322 57.6526 22.7498C57.3866 22.8674 57.1489 23.0429 56.956 23.2641C56.5246 23.7911 56.2663 24.4436 56.2178 25.1292C56.2174 25.1348 56.2181 25.1404 56.2199 25.1456C56.2217 25.1509 56.2245 25.1557 56.2282 25.1598C56.2319 25.1639 56.2364 25.1672 56.2414 25.1694C56.2464 25.1716 56.2518 25.1727 56.2573 25.1727H60.6134Z" fill="#414141"/>
<path d="M73.2735 25.1168V30.8116C73.2735 30.8223 73.2693 30.8326 73.2619 30.8402C73.2545 30.8478 73.2444 30.852 73.234 30.852H70.8736C70.8632 30.852 70.8531 30.8478 70.8457 30.8402C70.8383 30.8326 70.8341 30.8223 70.8341 30.8116V25.6453C70.8341 24.7562 70.6843 24.0993 70.3845 23.6745C70.2196 23.4604 70.0053 23.2915 69.7609 23.183C69.5165 23.0745 69.2496 23.0297 68.9841 23.0528C68.6709 23.0425 68.36 23.1111 68.0788 23.2526C67.7975 23.3941 67.5545 23.604 67.3711 23.8641C66.9376 24.514 66.7242 25.2915 66.7635 26.0773V30.8116C66.7635 30.8223 66.7594 30.8326 66.752 30.8402C66.7446 30.8478 66.7345 30.852 66.7241 30.852H64.3911C64.3806 30.852 64.3705 30.8478 64.3631 30.8402C64.3557 30.8326 64.3516 30.8223 64.3516 30.8116V21.2623C64.3516 21.2515 64.3557 21.2413 64.3631 21.2337C64.3705 21.2261 64.3806 21.2219 64.3911 21.2219H66.5175C66.5225 21.2218 66.5275 21.2229 66.5322 21.225C66.5368 21.227 66.541 21.2301 66.5444 21.2339C66.5478 21.2377 66.5504 21.2421 66.5521 21.247C66.5537 21.2519 66.5544 21.2571 66.5539 21.2623V22.8165C66.5545 22.825 66.5577 22.8332 66.5631 22.8397C66.5684 22.8463 66.5757 22.8509 66.5838 22.853C66.5919 22.8551 66.6004 22.8544 66.6081 22.8512C66.6159 22.848 66.6224 22.8424 66.6268 22.8352C66.9423 22.2732 67.3944 21.8042 67.9392 21.4736C68.5372 21.1281 69.2149 20.9531 69.9015 20.967C71.0073 20.967 71.8437 21.3182 72.4107 22.0207C72.9778 22.7233 73.2654 23.7553 73.2735 25.1168Z" fill="#414141"/>
<path d="M78.7667 18.1411V21.1813C78.7689 21.1915 78.7748 21.2004 78.7833 21.2062C78.7918 21.212 78.8022 21.2142 78.8122 21.2123H81.0025C81.0075 21.2123 81.0125 21.2134 81.0172 21.2155C81.0218 21.2175 81.0259 21.2206 81.0294 21.2244C81.0328 21.2282 81.0354 21.2326 81.0371 21.2375C81.0387 21.2424 81.0393 21.2476 81.0389 21.2528V22.9904C81.0393 22.9956 81.0387 23.0008 81.0371 23.0056C81.0354 23.0105 81.0328 23.015 81.0294 23.0188C81.0259 23.0226 81.0218 23.0257 81.0172 23.0277C81.0125 23.0298 81.0075 23.0308 81.0025 23.0308H78.8122C78.8018 23.0308 78.7917 23.0351 78.7843 23.0427C78.7769 23.0502 78.7727 23.0605 78.7727 23.0712V27.2615C78.7727 27.9796 78.8821 28.5049 79.1008 28.8158C79.2268 28.9787 79.3907 29.1068 79.5775 29.1882C79.7642 29.2697 79.968 29.3019 80.1701 29.282C80.3127 29.2811 80.455 29.2676 80.5954 29.2416C80.7475 29.2143 80.8977 29.177 81.045 29.1297C81.0508 29.1284 81.0568 29.1283 81.0627 29.1295C81.0685 29.1307 81.0741 29.1331 81.0789 29.1366C81.0838 29.1401 81.0879 29.1447 81.0909 29.1499C81.094 29.1551 81.0959 29.161 81.0966 29.167L81.1301 30.8176C81.1303 30.8269 81.1274 30.836 81.1219 30.8434C81.1163 30.8507 81.1085 30.8559 81.0997 30.8581C80.8404 30.9292 80.5764 30.9812 80.3099 31.0135C80.0304 31.0477 79.7479 31.0663 79.4623 31.0725C78.3505 31.0725 77.5526 30.7917 77.0686 30.2301C76.5845 29.6685 76.3435 28.736 76.3456 27.4325V23.0775C76.3456 23.0667 76.3414 23.0565 76.334 23.0489C76.3266 23.0413 76.3166 23.037 76.3061 23.037H74.5229C74.5179 23.0371 74.5129 23.036 74.5082 23.0339C74.5036 23.0319 74.4994 23.0288 74.496 23.025C74.4926 23.0212 74.49 23.0168 74.4883 23.0119C74.4867 23.007 74.486 23.0018 74.4865 22.9966V21.2621C74.486 21.2569 74.4867 21.2517 74.4883 21.2469C74.49 21.242 74.4926 21.2375 74.496 21.2337C74.4994 21.2299 74.5036 21.2268 74.5082 21.2248C74.5129 21.2227 74.5179 21.2217 74.5229 21.2217H76.4154C76.4205 21.2217 76.4255 21.2206 76.4301 21.2186C76.4348 21.2165 76.4389 21.2135 76.4424 21.2097C76.4458 21.2059 76.4484 21.2014 76.45 21.1965C76.4517 21.1916 76.4523 21.1864 76.4519 21.1813V18.9121C76.4525 18.9038 76.4554 18.8959 76.4603 18.8893C76.4651 18.8827 76.4717 18.8777 76.4792 18.8748L78.7181 18.1038C78.7237 18.1018 78.7298 18.1012 78.7358 18.1021C78.7417 18.103 78.7473 18.1055 78.7522 18.1091C78.757 18.1128 78.7608 18.1177 78.7633 18.1233C78.7659 18.1289 78.767 18.135 78.7667 18.1411Z" fill="#414141"/>
<path d="M90.4444 25.3592V30.8116C90.4444 30.8223 90.4402 30.8326 90.4328 30.8401C90.4254 30.8477 90.4154 30.852 90.4049 30.852H88.3423C88.332 30.8513 88.3224 30.8468 88.3151 30.8393C88.3079 30.8319 88.3035 30.822 88.3028 30.8116L88.2724 29.4127C88.2716 29.4048 88.2686 29.3972 88.2636 29.391C88.2587 29.3848 88.2521 29.3803 88.2446 29.3779C88.2371 29.3756 88.2291 29.3756 88.2216 29.3779C88.2141 29.3802 88.2075 29.3848 88.2025 29.391C87.8552 29.9018 87.4006 30.3267 86.872 30.6344C86.3227 30.9447 85.704 31.1033 85.0766 31.0944C84.2354 31.1325 83.4137 30.8273 82.7922 30.2458C82.5044 29.9634 82.2782 29.6218 82.1285 29.2436C81.9787 28.8654 81.9089 28.459 81.9234 28.0512C81.8991 27.5728 82.0017 27.0965 82.2205 26.6729C82.4392 26.2493 82.7659 25.8942 83.1659 25.6452C83.9922 25.1106 85.2306 24.8432 86.8811 24.8432H88.1235V24.7034C88.1391 24.4188 88.0926 24.1342 87.9875 23.8703C87.8825 23.6063 87.7214 23.3696 87.516 23.1771C87.0271 22.7898 86.4164 22.5996 85.7996 22.6424C85.3596 22.6448 84.9221 22.7096 84.4995 22.8351C84.0362 22.9724 83.5882 23.1589 83.1628 23.3916C83.1569 23.394 83.1505 23.395 83.1441 23.3945C83.1377 23.394 83.1315 23.392 83.1259 23.3888C83.1204 23.3855 83.1156 23.3809 83.112 23.3755C83.1084 23.3701 83.1061 23.3639 83.1051 23.3574L83.0656 21.685C83.0656 21.677 83.0679 21.6692 83.0723 21.6626C83.0766 21.6559 83.0827 21.6508 83.0899 21.6477C83.6177 21.4253 84.165 21.2546 84.7243 21.1379C85.2643 21.0264 85.8138 20.9701 86.3647 20.97C87.7823 20.97 88.8141 21.3213 89.4602 22.0238C90.1062 22.7263 90.4343 23.8381 90.4444 25.3592ZM87.273 26.2483C86.2857 26.2483 85.5445 26.3913 85.0463 26.671C84.8187 26.7837 84.6275 26.9607 84.4951 27.181C84.3626 27.4013 84.2946 27.6558 84.299 27.9144C84.292 28.1064 84.3264 28.2976 84.4 28.4744C84.4735 28.6512 84.5842 28.8092 84.7243 28.9371C85.0328 29.21 85.4318 29.3513 85.8391 29.3319C86.1471 29.341 86.4532 29.2814 86.7365 29.1575C87.0197 29.0335 87.2732 28.848 87.4795 28.6139C87.9215 28.1006 88.1523 27.4322 88.1235 26.7487V26.2887C88.1235 26.278 88.1194 26.2677 88.112 26.2601C88.1046 26.2525 88.0945 26.2483 88.084 26.2483H87.273Z" fill="#414141"/>
<path d="M98.4929 21.1192L98.4048 23.2578C98.4047 23.2637 98.4032 23.2695 98.4004 23.2746C98.3977 23.2798 98.3938 23.2842 98.389 23.2876C98.3843 23.2909 98.3788 23.2931 98.3731 23.2938C98.3674 23.2946 98.3616 23.294 98.3562 23.292C98.2407 23.2567 98.123 23.2297 98.0038 23.2112C97.86 23.1897 97.7148 23.1793 97.5694 23.1801C97.2245 23.1579 96.8794 23.2199 96.5625 23.361C96.2456 23.502 95.966 23.7181 95.7468 23.9914C95.3296 24.5323 95.121 25.3188 95.121 26.3508V30.8115C95.121 30.8222 95.1168 30.8325 95.1094 30.8401C95.102 30.8476 95.092 30.8519 95.0815 30.8519H92.7485C92.738 30.8519 92.728 30.8476 92.7206 30.8401C92.7131 30.8325 92.709 30.8222 92.709 30.8115V21.2622C92.709 21.2514 92.7131 21.2412 92.7206 21.2336C92.728 21.226 92.738 21.2217 92.7485 21.2217H94.8385C94.8435 21.2217 94.8485 21.2228 94.8532 21.2248C94.8578 21.2269 94.862 21.2299 94.8654 21.2337C94.8688 21.2375 94.8714 21.242 94.8731 21.2469C94.8747 21.2518 94.8753 21.257 94.8749 21.2622V22.9594C94.8773 22.9678 94.8823 22.9753 94.8891 22.9806C94.896 22.9858 94.9043 22.9887 94.9129 22.9887C94.9215 22.9887 94.9298 22.9858 94.9367 22.9806C94.9435 22.9753 94.9485 22.9678 94.9509 22.9594C95.1899 22.3992 95.5578 21.9065 96.0232 21.5233C96.4912 21.1662 97.0617 20.9782 97.6454 20.9886C97.7672 20.99 97.8889 20.9983 98.0099 21.0135C98.1345 21.0135 98.2803 21.0477 98.4473 21.0756C98.4532 21.0752 98.459 21.076 98.4646 21.078C98.4701 21.08 98.4751 21.0831 98.4794 21.0872C98.4837 21.0913 98.4871 21.0963 98.4894 21.1018C98.4917 21.1072 98.4929 21.1132 98.4929 21.1192Z" fill="#414141"/>
<path d="M103.643 18.1409V21.181C103.643 21.1918 103.647 21.202 103.654 21.2096C103.662 21.2172 103.672 21.2215 103.682 21.2215H105.87C105.88 21.2215 105.89 21.2257 105.897 21.2333C105.905 21.2409 105.909 21.2511 105.909 21.2619V22.9995C105.909 23.0102 105.905 23.0205 105.897 23.0281C105.89 23.0357 105.88 23.0399 105.87 23.0399H103.682C103.672 23.0399 103.662 23.0442 103.654 23.0518C103.647 23.0593 103.643 23.0696 103.643 23.0803V27.2613C103.599 27.8008 103.712 28.3415 103.968 28.8155C104.094 28.9785 104.258 29.1065 104.445 29.188C104.631 29.2695 104.835 29.3017 105.037 29.2818C105.181 29.2809 105.324 29.2673 105.466 29.2414C105.618 29.2141 105.768 29.1767 105.915 29.1295C105.921 29.1281 105.927 29.128 105.932 29.1292C105.938 29.1305 105.943 29.1329 105.948 29.1365C105.953 29.14 105.956 29.1446 105.959 29.1498C105.962 29.1551 105.963 29.1609 105.964 29.1668L106 30.8174C106 30.8267 105.998 30.8358 105.992 30.8432C105.986 30.8505 105.979 30.8557 105.97 30.8578C105.711 30.929 105.447 30.9809 105.18 31.0133C104.897 31.0475 104.615 31.0661 104.332 31.0723C103.221 31.0723 102.423 30.7915 101.939 30.2299C101.455 29.6683 101.213 28.7358 101.213 27.4323V23.0772C101.213 23.0665 101.208 23.0562 101.201 23.0487C101.194 23.0411 101.184 23.0368 101.173 23.0368H99.393C99.3825 23.0368 99.3725 23.0326 99.3651 23.025C99.3577 23.0174 99.3535 23.0071 99.3535 22.9964V21.2619C99.3535 21.2511 99.3577 21.2409 99.3651 21.2333C99.3725 21.2257 99.3825 21.2215 99.393 21.2215H101.292C101.302 21.2215 101.312 21.2172 101.32 21.2096C101.327 21.202 101.331 21.1918 101.331 21.181V18.9118C101.331 18.9035 101.334 18.8954 101.339 18.8887C101.344 18.8821 101.351 18.8771 101.358 18.8745L103.591 18.1036C103.597 18.1017 103.603 18.1012 103.609 18.1021C103.615 18.1031 103.621 18.1054 103.626 18.1091C103.631 18.1127 103.635 18.1174 103.638 18.123C103.641 18.1285 103.643 18.1346 103.643 18.1409Z" fill="#414141"/>
<path d="M48.7598 33.83L48.6596 34.7035C48.6591 34.7138 48.6562 34.724 48.6509 34.7329C48.6457 34.7418 48.6384 34.7492 48.6296 34.7544C48.6208 34.7597 48.6109 34.7626 48.6008 34.763C48.5906 34.7633 48.5805 34.761 48.5715 34.7563C48.0952 34.5324 47.5767 34.4178 47.0526 34.4206C46.6504 34.3979 46.2505 34.495 45.9013 34.7004C45.7717 34.7805 45.6652 34.8944 45.5926 35.0303C45.5201 35.1663 45.484 35.3195 45.4881 35.4744C45.4903 35.7355 45.5903 35.9859 45.7676 36.1738C46.1314 36.5106 46.5406 36.7922 46.9827 37.01C47.6024 37.325 48.1653 37.7455 48.6474 38.2534C48.9448 38.6067 49.1068 39.0585 49.1031 39.5248C49.1118 39.8534 49.0484 40.1798 48.9175 40.48C48.7865 40.7802 48.5915 41.0465 48.3467 41.2593C47.8031 41.7262 47.1085 41.9679 46.3995 41.937C46.0299 41.9383 45.661 41.9071 45.2967 41.8437C44.9778 41.7886 44.6646 41.7033 44.3611 41.5888C44.3476 41.583 44.3362 41.5729 44.3285 41.5601C44.3209 41.5473 44.3174 41.5323 44.3186 41.5173L44.4188 40.5475C44.4192 40.5389 44.4212 40.5305 44.4248 40.5227C44.4284 40.5149 44.4334 40.508 44.4396 40.5022C44.4458 40.4964 44.4531 40.4919 44.461 40.489C44.4689 40.4861 44.4773 40.4849 44.4857 40.4853C44.7695 40.6324 45.0665 40.7511 45.3727 40.8397C45.6699 40.9219 45.9762 40.9647 46.284 40.9671C46.6911 40.9877 47.0939 40.8732 47.4323 40.6407C47.5689 40.5439 47.6801 40.4141 47.7558 40.2628C47.8316 40.1115 47.8697 39.9434 47.8667 39.7734C47.8667 39.218 47.2976 38.6077 46.1595 37.9425C45.9681 37.8337 45.8223 37.7498 45.7251 37.6876C45.3198 37.4593 44.9699 37.1406 44.7013 36.7551C44.4658 36.423 44.3363 36.0245 44.3307 35.6143C44.3186 35.3145 44.378 35.0163 44.504 34.7455C44.63 34.4746 44.8187 34.2393 45.0537 34.06C45.6296 33.6512 46.3224 33.4509 47.0222 33.4911C47.3273 33.4893 47.632 33.5121 47.9335 33.5595C48.1994 33.6025 48.4614 33.6669 48.7173 33.7523C48.7323 33.7579 48.7448 33.7688 48.7526 33.7831C48.7604 33.7973 48.763 33.814 48.7598 33.83Z" fill="#898989"/>
<path d="M52.5231 34.0913V35.7917C52.5227 35.8005 52.524 35.8094 52.5271 35.8176C52.5301 35.8259 52.5347 35.8335 52.5407 35.8399C52.5467 35.8463 52.5538 35.8514 52.5618 35.8548C52.5697 35.8583 52.5783 35.8601 52.5869 35.8601H53.8628C53.8714 35.8597 53.88 35.861 53.8881 35.8641C53.8962 35.8672 53.9036 35.872 53.9098 35.8781C53.9161 35.8842 53.9211 35.8915 53.9245 35.8997C53.9279 35.9078 53.9296 35.9165 53.9296 35.9254V36.6403C53.9296 36.6492 53.9279 36.6579 53.9245 36.6661C53.9211 36.6742 53.9161 36.6815 53.9098 36.6876C53.9036 36.6937 53.8962 36.6985 53.8881 36.7016C53.88 36.7047 53.8714 36.706 53.8628 36.7056H52.5869C52.5783 36.7056 52.5697 36.7074 52.5618 36.7109C52.5538 36.7143 52.5467 36.7194 52.5407 36.7258C52.5347 36.7322 52.5301 36.7398 52.5271 36.7481C52.524 36.7563 52.5227 36.7652 52.5231 36.774V39.8234C52.4952 40.1688 52.5647 40.5152 52.7236 40.8213C52.7998 40.923 52.8999 41.0035 53.0147 41.0551C53.1294 41.1067 53.2549 41.1279 53.3798 41.1166C53.4687 41.1156 53.5572 41.1052 53.644 41.0855C53.7566 41.0593 53.8673 41.0251 53.9752 40.9829V41.8067C53.9756 41.8216 53.971 41.8362 53.9621 41.8481C53.9533 41.86 53.9407 41.8684 53.9266 41.872C53.7998 41.9058 53.6709 41.9307 53.5408 41.9466C53.3917 41.9663 53.2415 41.9767 53.0912 41.9776C52.8571 42.0009 52.6209 41.9705 52.3997 41.8888C52.1785 41.8071 51.9779 41.676 51.8123 41.5052C51.5571 41.1943 51.4265 40.6659 51.4265 39.9291V36.774C51.4269 36.7652 51.4255 36.7563 51.4225 36.7481C51.4195 36.7398 51.4149 36.7322 51.4089 36.7258C51.4029 36.7194 51.3958 36.7143 51.3878 36.7109C51.3799 36.7074 51.3713 36.7056 51.3627 36.7056H50.3177C50.3008 36.7056 50.2846 36.6987 50.2726 36.6865C50.2606 36.6742 50.2539 36.6576 50.2539 36.6403V35.9254C50.2539 35.9168 50.2556 35.9083 50.2588 35.9004C50.262 35.8925 50.2667 35.8853 50.2726 35.8792C50.2785 35.8732 50.2855 35.8683 50.2933 35.8651C50.301 35.8618 50.3093 35.8601 50.3177 35.8601H51.4052C51.4229 35.8601 51.4399 35.8529 51.4525 35.8401C51.465 35.8272 51.472 35.8098 51.472 35.7917V34.4209C51.4723 34.4073 51.4765 34.3942 51.4841 34.3832C51.4917 34.3721 51.5023 34.3636 51.5146 34.3587L52.4259 34.0292C52.436 34.0227 52.4477 34.0193 52.4597 34.0193C52.4716 34.0193 52.4833 34.0227 52.4935 34.0292C52.5036 34.0357 52.5118 34.0449 52.517 34.0559C52.5222 34.0669 52.5244 34.0792 52.5231 34.0913Z" fill="#898989"/>
<path d="M55.4727 35.8597H56.4265C56.4352 35.8593 56.4438 35.8607 56.4519 35.8638C56.46 35.8669 56.4674 35.8716 56.4736 35.8777C56.4799 35.8838 56.4848 35.8911 56.4882 35.8993C56.4916 35.9074 56.4934 35.9162 56.4934 35.925V39.1858C56.4544 39.6629 56.5605 40.1406 56.7971 40.5536C56.9139 40.7031 57.0646 40.8213 57.2361 40.8976C57.4077 40.974 57.5948 41.0064 57.7814 40.9919C58.0104 41.0037 58.2384 40.9547 58.4434 40.8496C58.6483 40.7444 58.8232 40.5868 58.9509 40.3919C59.2523 39.8602 59.3929 39.2491 59.3549 38.6356V35.925C59.3549 35.9077 59.3617 35.8911 59.3736 35.8788C59.3856 35.8666 59.4018 35.8597 59.4187 35.8597H60.3756C60.3843 35.8593 60.3929 35.8607 60.401 35.8638C60.4091 35.8669 60.4165 35.8716 60.4227 35.8777C60.429 35.8838 60.4339 35.8911 60.4373 35.8993C60.4407 35.9074 60.4425 35.9162 60.4425 35.925V41.8032C60.4425 41.8213 60.4354 41.8387 60.4229 41.8516C60.4104 41.8644 60.3934 41.8716 60.3756 41.8716H59.522C59.5048 41.8708 59.4886 41.8632 59.4767 41.8505C59.4648 41.8377 59.4582 41.8208 59.4582 41.8032V40.9515C59.4583 40.9371 59.4539 40.9232 59.4455 40.9117C59.4371 40.9003 59.4252 40.8919 59.4118 40.8881C59.3983 40.8842 59.3839 40.8849 59.3709 40.8902C59.3579 40.8955 59.347 40.905 59.3398 40.9173C59.1641 41.2152 58.9201 41.4649 58.6289 41.6447C58.2598 41.8613 57.8391 41.9689 57.4138 41.9555C57.1296 41.9783 56.8441 41.9324 56.5803 41.8218C56.3165 41.7111 56.0818 41.5386 55.8949 41.3183C55.5527 40.8934 55.3815 40.2717 55.3815 39.4532V35.9405C55.3766 35.9279 55.3756 35.9141 55.3787 35.9009C55.3819 35.8877 55.3889 35.8758 55.399 35.8669C55.409 35.858 55.4215 35.8525 55.4347 35.8512C55.4479 35.85 55.4612 35.8529 55.4727 35.8597Z" fill="#898989"/>
<path d="M66.7075 32.9224H67.6614C67.6791 32.9224 67.6961 32.9296 67.7087 32.9424C67.7212 32.9552 67.7282 32.9726 67.7282 32.9908V41.8034C67.7282 41.8215 67.7212 41.8389 67.7087 41.8518C67.6961 41.8646 67.6791 41.8718 67.6614 41.8718H66.8017C66.7845 41.871 66.7683 41.8634 66.7564 41.8507C66.7445 41.838 66.7379 41.821 66.7379 41.8034V40.8926C66.7388 40.878 66.7348 40.8636 66.7267 40.8515C66.7185 40.8395 66.7067 40.8306 66.693 40.8263C66.6793 40.822 66.6647 40.8226 66.6513 40.8278C66.638 40.8331 66.6268 40.8428 66.6194 40.8553C66.4339 41.1691 66.1803 41.435 65.8782 41.6324C65.5127 41.8602 65.0909 41.9756 64.6631 41.965C64.3263 41.9689 63.9936 41.8895 63.6933 41.7337C63.3929 41.5778 63.1337 41.3501 62.9377 41.0698C62.4655 40.404 62.2268 39.5946 62.2602 38.7726C62.2201 37.9743 62.4568 37.1871 62.9286 36.55C63.1373 36.2794 63.4051 36.0628 63.7107 35.9175C64.0162 35.7723 64.3507 35.7025 64.6874 35.7138C65.0799 35.7068 65.4678 35.802 65.8144 35.9905C66.094 36.149 66.3341 36.3713 66.5162 36.6402C66.5242 36.6515 66.5355 36.6599 66.5485 36.6641C66.5616 36.6683 66.5756 36.6682 66.5885 36.6637C66.6014 36.6591 66.6126 36.6505 66.6203 36.639C66.6281 36.6275 66.632 36.6137 66.6316 36.5998V32.9908C66.6315 32.981 66.6335 32.9712 66.6374 32.9623C66.6413 32.9533 66.6471 32.9453 66.6543 32.9388C66.6615 32.9323 66.67 32.9275 66.6792 32.9247C66.6884 32.9218 66.698 32.9211 66.7075 32.9224ZM64.9639 36.578C64.7403 36.5751 64.5197 36.6306 64.3229 36.7394C64.1262 36.8482 63.96 37.0067 63.8399 37.1997C63.5346 37.6915 63.387 38.2685 63.4176 38.8503C63.3868 39.4261 63.5369 39.9969 63.846 40.4792C63.972 40.669 64.1427 40.8235 64.3423 40.9283C64.5418 41.0331 64.7639 41.085 64.9882 41.0791C65.2226 41.0835 65.4544 41.0292 65.6636 40.9208C65.8727 40.8124 66.0528 40.6534 66.1881 40.4574C66.5099 39.9837 66.669 39.4141 66.6407 38.8379C66.6744 38.2489 66.5163 37.6651 66.1911 37.1779C66.0496 36.9834 65.8639 36.8271 65.65 36.7226C65.4362 36.618 65.2007 36.5684 64.9639 36.578Z" fill="#898989"/>
<path d="M69.9594 33.1056H70.9133C70.9219 33.1052 70.9305 33.1066 70.9386 33.1097C70.9467 33.1128 70.9541 33.1175 70.9604 33.1236C70.9666 33.1297 70.9716 33.1371 70.975 33.1452C70.9784 33.1533 70.9801 33.1621 70.9801 33.1709V34.1501C70.9793 34.1677 70.9719 34.1843 70.9595 34.1965C70.9471 34.2086 70.9305 34.2154 70.9133 34.2154H69.9564C69.9397 34.2146 69.9239 34.2075 69.9121 34.1954C69.9003 34.1833 69.8933 34.1672 69.8926 34.1501V33.1709C69.8926 33.1621 69.8943 33.1533 69.8977 33.1452C69.9011 33.1371 69.9061 33.1297 69.9123 33.1236C69.9186 33.1175 69.926 33.1128 69.9341 33.1097C69.9422 33.1066 69.9508 33.1052 69.9594 33.1056ZM69.9594 35.8598H70.9133C70.9219 35.8594 70.9305 35.8607 70.9386 35.8638C70.9467 35.8669 70.9541 35.8717 70.9604 35.8778C70.9666 35.8839 70.9716 35.8912 70.975 35.8993C70.9784 35.9075 70.9801 35.9162 70.9801 35.9251V41.8032C70.9801 41.8214 70.9731 41.8388 70.9605 41.8516C70.948 41.8644 70.931 41.8716 70.9133 41.8716H69.9564C69.9392 41.8708 69.923 41.8633 69.9111 41.8505C69.8992 41.8378 69.8926 41.8209 69.8926 41.8032V35.9251C69.8926 35.9162 69.8943 35.9075 69.8977 35.8993C69.9011 35.8912 69.9061 35.8839 69.9123 35.8778C69.9186 35.8717 69.926 35.8669 69.9341 35.8638C69.9422 35.8607 69.9508 35.8594 69.9594 35.8598Z" fill="#898989"/>
<path d="M75.6185 35.7136C76.0112 35.693 76.4037 35.7577 76.7702 35.9034C77.1367 36.0491 77.4689 36.2726 77.745 36.5591C78.2526 37.2145 78.5288 38.0263 78.5288 38.8625C78.5288 39.6988 78.2526 40.5105 77.745 41.1659C77.1662 41.7136 76.4069 42.0178 75.6185 42.0178C74.8302 42.0178 74.0709 41.7136 73.4921 41.1659C72.9873 40.5087 72.7129 39.6969 72.7129 38.861C72.7129 38.025 72.9873 37.2133 73.4921 36.556C73.7677 36.2691 74.0999 36.0455 74.4666 35.9003C74.8332 35.755 75.226 35.6914 75.6185 35.7136ZM75.4575 36.5747C75.1328 36.598 74.825 36.7315 74.5827 36.9539C74.1308 37.4749 73.8813 38.1473 73.8813 38.8439C73.8813 39.5404 74.1308 40.2128 74.5827 40.7338C74.8286 40.9572 75.1413 41.0887 75.4697 41.1069C75.7438 41.1431 76.0224 41.1048 76.2773 40.9956C76.5323 40.8864 76.7546 40.7104 76.9217 40.4852C77.2349 39.9914 77.4015 39.4154 77.4015 38.8268C77.4015 38.2382 77.2349 37.6621 76.9217 37.1684C76.7513 36.9485 76.5276 36.778 76.2729 36.6739C76.0182 36.5698 75.7413 36.5355 75.4697 36.5747H75.4575Z" fill="#898989"/>
</svg>
